<?xml version="1.0" standalone="no"?>
<!DOCTYPE svg PUBLIC "-//W3C//DTD SVG 20010904//EN"
 "http://www.w3.org/TR/2001/REC-SVG-20010904/DTD/svg10.dtd">
<svg version="1.0" xmlns="http://www.w3.org/2000/svg"
 width="447.000000pt" height="447.000000pt" viewBox="0 0 447.000000 447.000000"
 preserveAspectRatio="xMidYMid meet">
<metadata>
Created by potrace 1.11, written by Peter Selinger 2001-2013
</metadata>
<g transform="translate(0.000000,447.000000) scale(0.100000,-0.100000)"
fill="#000000" stroke="none">
<path d="M2108 4186 c-9 -7 -40 -12 -68 -11 -28 1 -53 -1 -55 -5 -3 -5 -21 -8
-40 -8 -20 0 -42 -5 -49 -11 -10 -9 -16 -9 -21 -1 -5 8 -12 7 -23 -3 -10 -8
-27 -13 -39 -11 -13 2 -23 -1 -23 -6 0 -6 -13 -10 -28 -10 -16 0 -32 -3 -36
-7 -4 -5 -11 -8 -14 -9 -22 -2 -99 -28 -109 -36 -7 -6 -13 -8 -13 -4 0 4 -17
-2 -39 -13 -21 -11 -41 -18 -44 -14 -3 3 -13 -2 -22 -11 -9 -9 -25 -16 -34
-16 -10 0 -24 -7 -31 -15 -7 -8 -19 -15 -26 -15 -8 0 -14 -5 -14 -11 0 -5 -4
-8 -9 -4 -5 3 -12 1 -16 -5 -4 -6 -11 -8 -16 -5 -5 4 -9 2 -9 -3 0 -5 -8 -12
-17 -15 -18 -6 -73 -37 -83 -47 -3 -3 -25 -19 -50 -35 -25 -17 -51 -38 -58
-47 -7 -10 -18 -18 -24 -18 -6 0 -26 -15 -44 -34 -18 -19 -35 -32 -37 -30 -4
5 -207 -196 -207 -205 0 -3 -17 -25 -37 -48 -45 -51 -115 -148 -115 -160 0 -4
-13 -24 -29 -44 -16 -20 -29 -41 -29 -46 0 -5 -5 -14 -12 -21 -6 -6 -13 -18
-14 -27 -1 -8 -12 -28 -23 -44 -12 -16 -21 -35 -21 -43 0 -7 -7 -24 -16 -36
-8 -12 -12 -27 -9 -33 5 -7 -7 -9 -36 -4 -96 13 -115 14 -151 4 -21 -5 -38
-13 -39 -17 -6 -48 -13 -197 -24 -497 -3 -60 -5 -110 -5 -110 -1 0 -3 -47 -5
-105 -2 -58 -6 -160 -10 -227 -5 -106 -3 -123 10 -124 8 -1 24 -3 35 -4 11 -1
41 -3 66 -4 l46 -1 -5 -46 c-5 -40 -3 -48 23 -76 16 -17 27 -34 24 -39 -3 -5
-1 -9 3 -9 5 0 10 -11 11 -25 1 -14 9 -39 17 -55 9 -16 16 -33 16 -37 3 -17
11 -40 28 -78 10 -22 26 -59 36 -82 10 -24 22 -43 26 -43 5 0 6 -7 3 -15 -4
-8 -2 -15 3 -15 5 0 22 -25 38 -55 15 -30 31 -55 36 -55 5 0 9 -7 9 -15 0 -9
7 -18 15 -21 8 -4 13 -10 10 -14 -3 -5 2 -15 10 -23 8 -9 15 -19 15 -24 0 -4
12 -19 25 -32 14 -13 24 -26 21 -28 -4 -5 11 -22 170 -187 57 -60 104 -105
104 -102 0 4 24 -13 52 -38 29 -25 56 -46 60 -46 5 0 8 -5 8 -12 0 -6 -7 -4
-18 5 -10 10 -23 17 -29 17 -6 0 -13 4 -15 9 -6 17 -66 20 -87 5 -15 -11 -26
-12 -40 -4 -14 7 -22 7 -27 -1 -5 -8 -9 -8 -14 1 -5 9 -13 9 -28 1 -11 -6 -35
-10 -53 -10 -19 1 -47 -5 -64 -12 -16 -7 -44 -13 -62 -13 -17 -1 -35 -5 -39
-9 -4 -4 -23 -7 -41 -7 -19 0 -48 -7 -64 -16 -17 -8 -33 -13 -36 -10 -3 3 -18
-1 -33 -9 -15 -8 -30 -12 -33 -9 -6 6 -93 -40 -118 -62 -8 -8 -19 -14 -22 -14
-11 0 -77 -67 -77 -78 0 -5 -7 -15 -15 -22 -8 -7 -12 -16 -9 -21 3 -5 1 -9 -5
-9 -15 0 -24 -38 -25 -103 -1 -51 2 -61 26 -84 16 -15 28 -33 28 -40 0 -7 5
-13 10 -13 6 0 10 -7 10 -15 0 -8 7 -15 15 -15 8 0 15 -4 15 -10 0 -5 6 -10
13 -10 7 0 18 -9 25 -20 7 -12 17 -18 22 -15 4 3 15 -2 23 -10 9 -8 21 -15 27
-15 13 0 113 -41 120 -50 3 -3 12 -6 20 -6 45 -2 120 -18 120 -25 0 -5 12 -7
27 -5 14 3 31 2 37 -2 6 -3 18 -7 26 -8 8 -1 38 -5 65 -10 28 -4 68 -8 90 -8
22 -1 45 -4 50 -7 6 -3 41 -5 78 -5 38 1 71 -2 73 -6 7 -10 2244 -11 2244 0 0
4 37 8 83 10 161 5 197 7 197 14 0 3 20 6 45 6 25 0 52 5 59 11 7 6 27 9 45 7
17 -2 34 0 37 5 3 5 16 9 30 9 13 0 24 3 24 8 0 4 15 7 34 6 21 -1 42 5 53 15
12 11 30 16 51 14 17 -2 32 0 32 6 0 5 20 17 45 26 24 10 52 26 61 36 9 10 21
16 25 13 5 -3 9 4 9 15 0 12 4 20 9 18 12 -3 61 51 61 69 0 7 5 14 12 14 6 0
8 3 5 7 -4 3 -1 13 7 22 8 9 15 23 17 31 5 27 -12 100 -22 94 -6 -3 -7 7 -4
25 3 19 1 31 -6 31 -6 0 -17 7 -25 15 -9 8 -12 15 -8 15 12 0 -66 70 -111 99
-22 14 -42 28 -45 31 -3 3 -9 5 -15 5 -24 1 -95 27 -95 34 0 5 -8 8 -17 8 -18
-1 -66 10 -93 20 -8 4 -33 8 -55 9 -49 4 -86 10 -117 19 -12 5 -44 7 -70 6
-26 -1 -50 3 -53 9 -5 8 -11 7 -21 -1 -11 -9 -18 -9 -29 1 -9 7 -18 10 -22 6
-3 -3 -18 1 -31 10 -24 16 -26 15 -39 -2 -7 -10 -13 -14 -13 -10 0 5 -7 3 -15
-4 -10 -9 -15 -9 -15 -1 0 6 4 11 8 11 24 0 223 188 292 275 25 31 52 64 60
73 8 8 15 20 15 25 0 5 7 14 15 20 9 7 27 30 40 52 13 22 30 46 37 53 7 7 13
19 13 26 0 7 8 21 18 32 16 19 74 132 69 137 -1 1 8 16 19 32 12 17 19 36 17
43 -3 6 0 12 6 12 6 0 11 4 11 9 0 5 5 22 12 38 6 15 12 31 13 36 2 4 4 9 5
12 3 6 5 12 14 50 4 17 11 38 16 47 6 10 7 23 4 31 -3 8 14 29 43 53 129 105
189 200 198 314 8 105 -35 193 -137 274 -44 36 -48 42 -46 81 0 23 -3 48 -7
55 -4 7 -8 28 -9 46 -1 36 11 44 70 44 17 0 37 7 44 15 13 16 13 19 -17 215
-2 14 -5 39 -7 55 -8 62 -19 86 -45 99 -22 12 -94 22 -111 16 -38 -13 -47 -7
-53 37 -4 29 -23 50 -52 57 -14 4 -25 13 -25 21 0 8 -5 15 -10 15 -6 0 -9 3
-9 8 3 17 -2 30 -21 52 -11 13 -20 28 -20 34 0 10 -10 23 -58 82 -5 5 -15 21
-22 35 -7 13 -19 28 -26 32 -8 4 -14 12 -14 18 0 26 -196 222 -340 339 -48 40
-189 128 -194 122 -3 -3 -6 -1 -6 5 0 10 -102 64 -116 62 -4 0 -10 3 -13 8 -7
10 -61 37 -76 38 -5 1 -25 9 -42 18 -18 10 -33 15 -33 11 0 -4 -6 -2 -12 3 -7
6 -26 14 -43 18 -44 12 -45 12 -50 15 -3 1 -8 3 -12 5 -5 1 -15 4 -23 8 -24 9
-73 19 -97 19 -13 0 -23 5 -23 10 0 6 -9 8 -19 5 -11 -3 -28 1 -38 7 -10 7
-35 11 -55 10 -21 -1 -38 2 -38 6 0 4 -24 7 -52 6 -29 -1 -66 2 -83 6 -41 12
-96 18 -91 10 5 -8 -78 -6 -99 2 -8 3 -15 1 -15 -5 0 -6 -6 -6 -18 0 -11 6
-23 5 -34 -3z m552 -992 c0 -8 -4 -12 -10 -9 -5 3 -10 10 -10 16 0 5 5 9 10 9
6 0 10 -7 10 -16z m-495 -44 c3 -5 1 -10 -4 -10 -6 0 -11 5 -11 10 0 6 2 10 4
10 3 0 8 -4 11 -10z m405 0 c0 -5 -5 -10 -11 -10 -5 0 -7 5 -4 10 3 6 8 10 11
10 2 0 4 -4 4 -10z"/>
<path d="M3478 843 c7 -3 16 -2 19 1 4 3 -2 6 -13 5 -11 0 -14 -3 -6 -6z"/>
</g>
</svg>
